<?xml version="1.0" encoding="utf-8"?>
<!-- Generator: Adobe Illustrator 19.0.0, SVG Export Plug-In . SVG Version: 6.00 Build 0)  -->
<svg version="1.1" id="Layer_1" xmlns="http://www.w3.org/2000/svg" xmlns:xlink="http://www.w3.org/1999/xlink" x="0px" y="0px"
	 viewBox="-179 285.2 251.3 222.8" style="enable-background:new -179 285.2 251.3 222.8;" xml:space="preserve">
<style type="text/css">
	.st0{fill:#01D277;}
</style>
<title>PrimaryLogo_Green</title>
<path class="st0" d="M47.9,493.4c14.6,0,24.5-9.9,24.5-24.5V309.7c0-14.6-9.9-24.5-24.5-24.5h-202.4c-14.6,0-24.5,9.9-24.5,24.5V508
	l12.6-14.6l0,0V309.7c0-6.6,5.3-11.9,11.9-11.9H47.9c6.6,0,11.9,5.3,11.9,11.9V469c0,6.6-5.3,11.9-11.9,11.9h-183.7l-12.6,12.6
	l-0.1-0.1"/>
<path class="st0" d="M-65.2,315.1c2.2,0,4.4,0,6.5,0c0.4,0.1,0.8,0.2,1.2,0.2c4,0.6,8,0.9,12,1.7c37,8.1,62.2,44.5,56.8,82.1
	C8.7,417.6,0.3,433-13.8,445.3c-0.3,0.2-0.6,0.5-0.9,0.7c10.8-2.2,25.9-8.5,37.3-15.4c1.5-0.9,3.1-1.9,4.6-2.8c0,0.2,0,0.4,0,0.5
	c-0.2,0.2-0.4,0.4-0.5,0.6c-3.5,5.6-4.9,11.8-4.2,18.3c0.3,2.5,0.8,4.9,1.3,7.4c-2.9,0.3-5.8,0.6-8.8,0.9c-11,1.1-22,2.3-33,3.4
	c-10.2,1.1-20.5,2.1-30.7,3.2c-3.5,0.4-6.9,0.7-10.4,1.1c-1.8,0-3.6,0-5.5,0c-0.4-0.1-0.9-0.1-1.3-0.2c-4.6-0.7-9.3-1-13.8-2.1
	c-44.3-11.1-68.2-59.1-49.9-101c10.7-24.4,29.7-38.8,55.9-43.7C-70.9,315.7-68,315.5-65.2,315.1z M-40.7,374.2
	c0,12.3,9.9,22.2,22.1,22.2c12.3,0,22.3-9.9,22.4-22.1c0-12.3-10-22.3-22.2-22.3C-30.7,351.9-40.7,361.8-40.7,374.2z M-67.5,426.3
	c0-12.3-10-22.3-22.3-22.2c-12.2,0.1-22.2,10-22.2,22.2c0,12.2,10,22.3,22.3,22.3C-77.5,448.6-67.5,438.6-67.5,426.3z M-84.6,341.3
	c-0.1,12.2,9.8,22.3,21.9,22.3c12.4,0.1,22.5-9.8,22.6-22.1c0.1-12.2-9.8-22.3-22-22.4C-74.6,319.1-84.5,328.9-84.6,341.3z
	 M-107.3,396.7c12.3,0,22.2-9.8,22.2-22.1c0-12.3-9.9-22.3-22.1-22.4c-12.3,0-22.3,10-22.3,22.2
	C-129.5,386.7-119.6,396.7-107.3,396.7z M-12.5,425.5c0.1-12.2-9.8-22.2-21.9-22.3c-12.4-0.1-22.5,9.8-22.6,22.1
	c-0.1,12.2,9.9,22.3,22,22.4C-22.5,447.7-12.5,437.9-12.5,425.5z M-68,388.8c0,3.1,2.5,5.5,5.5,5.5c3,0,5.5-2.5,5.5-5.6
	c0-3.1-2.4-5.5-5.5-5.5C-65.5,383.3-68,385.7-68,388.8z M-68.5,401.3c2.1,0,3.9-1.8,3.9-3.9c0-2.1-1.8-3.9-3.9-3.9
	c-2.1,0-3.9,1.8-3.9,3.9C-72.4,399.5-70.6,401.3-68.5,401.3z M-55.6,401c2.1,0,3.9-1.8,4-3.9c0-2.1-1.8-3.9-3.9-4
	c-2.1,0-3.9,1.8-3.9,3.9C-59.5,399.1-57.7,401-55.6,401z M-48,385.2c0-2.1-1.8-3.9-3.9-3.9c-2.2,0-3.9,1.8-3.9,3.9
	c0,2.1,1.8,3.9,3.9,3.9C-49.7,389.1-48,387.3-48,385.2z M-58.3,377.2c0-2.1-1.8-3.9-3.9-3.9c-2.1,0-3.9,1.8-3.9,3.9
	c0,2.1,1.7,3.9,3.9,3.9C-60,381.1-58.3,379.3-58.3,377.2z M-73.6,389.3c2.2,0,3.8-1.7,3.8-3.9c0-2.2-1.8-3.8-3.9-3.8
	c-2.2,0-3.8,1.7-3.8,3.9C-77.5,387.7-75.8,389.3-73.6,389.3z"/>
</svg>
